<svg version="1.0" xmlns="http://www.w3.org/2000/svg"
 width="512.000000pt" height="512.000000pt" viewBox="0 0 512.000000 512.000000"
 preserveAspectRatio="xMidYMid meet">

<g transform="translate(0.000000,512.000000) scale(0.100000,-0.100000)"
fill="#ffffff" stroke="none">
<path d="M2362 4470 c-212 -22 -476 -94 -654 -177 -129 -61 -167 -118 -156
-231 4 -36 31 -93 120 -252 104 -187 119 -208 161 -234 66 -41 126 -39 237 7
179 74 339 102 539 94 255 -11 453 -76 671 -221 321 -214 530 -574 556 -958
l7 -98 -149 0 c-180 0 -216 -9 -270 -64 -66 -69 -79 -158 -37 -241 28 -53 584
-1009 609 -1046 55 -81 175 -108 264 -59 38 22 97 96 423 540 208 283 390 535
405 560 50 84 27 205 -50 263 -50 38 -100 47 -255 47 l-141 0 -6 88 c-19 263
-63 472 -142 672 -273 689 -891 1179 -1634 1295 -125 19 -382 27 -498 15z"/>
<path d="M900 3829 c-19 -6 -47 -20 -62 -30 -27 -20 -782 -1040 -815 -1102
-40 -75 -11 -198 59 -250 50 -38 100 -47 256 -47 132 0 142 -1 142 -19 0 -78
25 -298 46 -399 224 -1113 1331 -1845 2446 -1617 243 49 506 156 563 228 27
36 30 45 30 115 l0 77 -106 185 c-134 236 -131 232 -180 260 -64 35 -124 31
-244 -17 -174 -70 -264 -87 -465 -88 -243 0 -364 27 -575 130 -372 181 -634
532 -700 938 -8 51 -15 118 -15 150 l0 57 141 0 c77 0 161 5 187 12 104 26
174 150 140 250 -18 56 -614 1081 -647 1114 -51 51 -133 73 -201 53z"/>
</g>
</svg>