<svg width="22" height="22" xmlns="http://www.w3.org/2000/svg">
 <g>
  <rect fill="#fff" id="canvas_background" height="22" width="22" y="-1" x="-1"/>
 </g>
 <g>
  <path id="svg_1" fill="#C4C4C4" d="m-219.727985,-47.482448c0.2753,0 0.4755,0 0.6757,0c5.0048,0 10.0097,0 15.0146,0c1.564,0 2.3272,0.76409 2.3272,2.35491c0,0.85177 0.0125,1.71607 0,2.56785c-0.0125,1.25261 -0.8383,2.07933 -2.077,2.09185c-0.6256,0.01253 -1.2387,0 -1.9144,0c0,0.97704 0,1.87892 0,2.79329c-0.0125,2.5053 -1.7016,4.2088 -4.1915,4.2213c-1.8769,0 -3.7537,0.0126 -5.6305,0c-2.4649,-0.0125 -4.1791,-1.7035 -4.1791,-4.1586c-0.0375,-3.26935 -0.025,-6.51361 -0.025,-9.8706zm14.0637,2.0167c0,0.97704 0,1.9666 0,2.95616c0.6506,0 1.2762,0 1.9018,0c0,-1.00209 0,-1.97912 0,-2.95616c-0.6506,0 -1.2512,0 -1.9018,0z"/>
  <path id="svg_2" fill="#C4C4C4" d="m-203.749585,-31.411548c0,0.6514 0,1.2777 0,1.929c-5.9934,0 -11.9617,0 -17.955,0c0,-0.6513 0,-1.2651 0,-1.929c5.9683,0 11.9366,0 17.955,0z"/>
  <line stroke="null" stroke-linecap="null" stroke-linejoin="null" id="svg_4" y2="-30.497985" x2="-195.587159" y1="-48.144966" x1="-226.763495" fill-opacity="null" stroke-opacity="null" stroke-width="null" fill="none"/>
  <path id="svg_5" fill="#C4C4C4" d="m4.512513,2.754688c0.2753,0 0.4755,0 0.6757,0c5.0048,0 10.0097,0 15.0146,0c1.564,0 2.3272,0.76409 2.3272,2.35491c0,0.85177 0.0125,1.71607 0,2.56785c-0.0125,1.25261 -0.8383,2.07933 -2.077,2.09185c-0.6256,0.01253 -1.2387,0 -1.9144,0c0,0.97704 0,1.87892 0,2.79329c-0.0125,2.5053 -1.7016,4.2088 -4.1915,4.2213c-1.8769,0 -3.7537,0.0126 -5.6305,0c-2.4649,-0.0125 -4.1791,-1.7035 -4.1791,-4.1586c-0.0375,-3.26935 -0.025,-6.51361 -0.025,-9.8706zm14.0637,2.0167c0,0.97704 0,1.9666 0,2.95616c0.6506,0 1.2762,0 1.9018,0c0,-1.00209 0,-1.97912 0,-2.95616c-0.6506,0 -1.2512,0 -1.9018,0z"/>
  <path id="svg_6" fill="#C4C4C4" d="m20.955305,18c0,0.6514 0,1.2777 0,1.929c-5.9934,0 -11.9617,0 -17.955,0c0,-0.6513 0,-1.2651 0,-1.929c5.9683,0 11.9366,0 17.955,0z"/>
  <line stroke="null" stroke-linecap="null" stroke-linejoin="null" id="svg_7" y2="18.913563" x2="99.117426" y1="1.266581" x1="67.94109" fill-opacity="null" stroke-opacity="null" stroke-width="null" fill="none"/>
 </g>
</svg>