
<svg width="22" height="22" xmlns="http://www.w3.org/2000/svg">
 <g>
  <rect fill="#fff" id="canvas_background" height="22" width="22" y="-1" x="-1"/>
 </g>
 <g>
  <path id="svg_1" fill="#C4C4C4" d="m8.119961,17.875624c-0.1306,0.0041 -0.2123,-0.0489 -0.2837,-0.1201c-0.5101,-0.4989 -1.0244,-0.9937 -1.5305,-1.4946c-0.5714,-0.5661 -1.1346,-1.1423 -1.7101,-1.7043c-0.1285,-0.1263 -0.1612,-0.2586 -0.1102,-0.4073c0.1123,-0.3359 0.2245,-0.676 0.3653,-1.0018c0.9061,-2.1075 2.1652,-3.99095 3.6794,-5.70747c1.406,-1.59435 3.0018,-2.97083 4.7976,-4.10907c0.6367,-0.40317 1.3019,-0.75747 1.9529,-1.1362c0.0673,-0.03869 0.0959,-0.00407 0.1367,0.03462c0.6367,0.63529 1.2754,1.27059 1.9121,1.90792c0.9326,0.93055 1.8652,1.86313 2.7998,2.79164c0.0592,0.05905 0.0633,0.09774 0.0265,0.17104c-0.7958,1.5577 -1.7611,3.00137 -2.8997,4.32902c-0.7204,0.8389 -1.502,1.6187 -2.3244,2.3579c-1.8855,1.6941 -3.9997,3.0319 -6.3669,3.9584c-0.1224,0.0488 -0.2489,0.0875 -0.3754,0.1283c-0.0306,0.002 -0.0633,0 -0.0694,0.002zm1.3468,-6.2308c-0.0673,0.7412 0.6204,1.2543 1.2244,1.2502c0.6796,-0.0061 1.2469,-0.566 1.2448,-1.2482c-0.002,-0.5721 -0.3999,-1.24409 -1.3427,-1.22984c-0.6102,0.01018 -1.1265,0.56404 -1.1265,1.22784zm4.7629,-2.30703c0.7184,0.07534 1.253,-0.64955 1.2469,-1.21765c-0.0041,-0.58032 -0.5122,-1.25023 -1.2816,-1.24412c-0.6142,0.00407 -1.2305,0.56403 -1.2039,1.2543c0.0265,0.7086 0.5183,1.20747 1.2386,1.20747z"/>
  <path id="svg_2" fill="#C4C4C4" d="m20.600861,6.140994c-1.4672,-1.44571 -2.9365,-2.89141 -4.4201,-4.35341c0.2837,-0.11199 0.549,-0.22195 0.8183,-0.323756c0.9857,-0.376698 1.9978,-0.647514 3.0365,-0.808374c0.4184,-0.065159 0.8428,-0.107919 1.2673,-0.130318c0.4163,-0.022398 0.5346,0.107919 0.5326,0.527378c-0.0041,0.71267 -0.1286,1.40906 -0.2816,2.1034c-0.2265,1.02421 -0.5449,2.02196 -0.9612,2.98508c-0.0061,0.01222 -0.0122,0.02444 -0.0183,0.03462c0.0081,-0.01222 0.0183,-0.02444 0.0265,-0.03462z"/>
  <path id="svg_3" fill="#C4C4C4" d="m8.805861,6.505414c-0.0408,0.04887 -0.0775,0.09978 -0.1224,0.14457c-1.2224,1.27263 -2.2591,2.68169 -3.1406,4.20684c-0.3102,0.5375 -0.5877,1.0914 -0.8755,1.6411c-0.0449,0.0856 -0.0877,0.1059 -0.1816,0.0795c-0.7836,-0.224 -1.5672,-0.4399 -2.3508,-0.6618c-0.249,-0.0713 -0.3612,-0.3095 -0.2653,-0.5539c0.0306,-0.0773 0.0734,-0.1527 0.1183,-0.2239c1.0347,-1.61271 2.3876,-2.88738 4.0936,-3.76906c0.8183,-0.42353 1.6815,-0.72285 2.5917,-0.88575c0.0387,-0.0061 0.0775,-0.00611 0.1163,-0.00814c0.0061,0.01018 0.0102,0.02036 0.0163,0.03054z"/>
  <path id="svg_4" fill="#C4C4C4" d="m9.736461,17.710724c1.1183,-0.5376 2.1937,-1.1423 3.2161,-1.8428c1.0203,-0.6984 1.9713,-1.4844 2.8814,-2.3213c0.0122,0.0082 0.0265,0.0163 0.0388,0.0245c-0.0082,0.0672 -0.0143,0.1344 -0.0266,0.2015c-0.304,1.5985 -1.0162,3.0014 -2.0365,4.2557c-0.7449,0.9163 -1.6203,1.688 -2.6243,2.3131c-0.0796,0.051 -0.1633,0.0978 -0.251,0.1324c-0.1776,0.0692 -0.349,0.0102 -0.4265,-0.1629c-0.0776,-0.1731 -0.1429,-0.3523 -0.196,-0.5335c-0.1938,-0.674 -0.3816,-1.35 -0.5713,-2.024c-0.0021,-0.0081 -0.0021,-0.0183 -0.0041,-0.0427z"/>
  <path id="svg_5" fill="#C4C4C4" d="m7.069361,18.223924c-0.1367,0.1038 -0.2694,0.2219 -0.4183,0.3135c-0.5837,0.3625 -1.2061,0.6537 -1.8448,0.9021c-0.9224,0.3604 -1.8529,0.6964 -2.7814,1.0425c-0.0429,0.0163 -0.0898,0.0245 -0.1551,0.0407c0.0755,-0.2178 0.1408,-0.4153 0.2122,-0.6108c0.4265,-1.1729 0.8571,-2.3457 1.4101,-3.4677c0.1775,-0.3583 0.3612,-0.7147 0.6326,-1.016c0.0245,-0.0265 0.051,-0.053 0.0694,-0.0733c0.953,0.9529 1.9039,1.8997 2.8753,2.869z"/>
 </g>
</svg>