<?xml version="1.0" encoding="iso-8859-1"?>
<!-- Generator: Adobe Illustrator 19.1.0, SVG Export Plug-In . SVG Version: 6.00 Build 0)  -->
<svg version="1.1" id="Capa_1" xmlns="http://www.w3.org/2000/svg" xmlns:xlink="http://www.w3.org/1999/xlink" x="0px" y="0px"
	 viewBox="0 0 63.054 63.054" style="enable-background:new 0 0 63.054 63.054;" xml:space="preserve">
<g>
	<g id="group-12svg">
		<path id="path-1_2_" d="M43.214,52.037h-23.38c-3.705,0-6.775-2.865-6.988-6.524l-2.004-20.014
			c-0.204-3.447,2.105-20.076,6.087-24.302C17.677,0.403,18.501,0,19.378,0H43.67c0.857,0,1.664,0.386,2.395,1.146
			c3.897,4.046,6.358,20.99,6.148,26.649c-0.001,0.038-0.004,0.076-0.009,0.114l-2.009,17.72c-0.01,0.092-0.029,0.183-0.056,0.271
			C49.915,46.63,47.188,52.037,43.214,52.037z M43.614,2.995L19.378,3.002c-2.32,0.803-5.831,17.415-5.547,22.259l2.004,20.015
			c0.128,2.17,1.846,3.759,3.999,3.759h23.38c1.66,0,3.586-2.967,4.023-3.943l1.98-17.464C49.469,20.26,46.066,3.849,43.614,2.995z"
			/>
		<path id="path-2_2_" d="M43.25,23.017H19.797c-0.803,0-1.463-0.633-1.498-1.435c-0.116-2.607,1.181-12.179,3.609-14.718
			c0.679-0.71,1.373-0.859,1.836-0.859h15.56c0.463,0,1.157,0.149,1.837,0.859c2.428,2.541,3.723,12.112,3.607,14.718
			C44.713,22.385,44.053,23.017,43.25,23.017z M21.328,20.014H41.72c-0.252-3.632-1.628-9.853-2.676-11.007h-15.04
			C22.957,10.16,21.58,16.382,21.328,20.014z"/>
		<path id="path-3_2_" d="M40.894,37.45c-2.653,0-4.811-2.16-4.811-4.814c0-2.655,2.158-4.815,4.811-4.815
			c2.654,0,4.812,2.16,4.812,4.815C45.706,35.29,43.548,37.45,40.894,37.45z M40.894,30.823c-0.999,0-1.811,0.813-1.811,1.813
			c0,0.999,0.812,1.812,1.811,1.812c1,0,1.812-0.813,1.812-1.812C42.706,31.636,41.894,30.823,40.894,30.823z"/>
		<path id="path-4_2_" d="M22.251,37.45c-2.653,0-4.812-2.16-4.812-4.814c0-2.655,2.159-4.815,4.812-4.815s4.811,2.16,4.811,4.815
			C27.062,35.29,24.904,37.45,22.251,37.45z M22.251,30.823c-0.999,0-1.812,0.813-1.812,1.813c0,0.999,0.813,1.812,1.812,1.812
			c0.999,0,1.811-0.813,1.811-1.812C24.062,31.636,23.25,30.823,22.251,30.823z"/>
		<path id="path-5_1_" d="M40.906,42.03h-20c-0.828,0-1.5-0.672-1.5-1.501c0-0.829,0.672-1.501,1.5-1.501h20
			c0.828,0,1.5,0.672,1.5,1.501C42.406,41.358,41.734,42.03,40.906,42.03z"/>
		<path id="path-6" d="M40.906,47.034h-20c-0.828,0-1.5-0.672-1.5-1.501c0-0.83,0.672-1.502,1.5-1.502h20
			c0.828,0,1.5,0.672,1.5,1.502C42.406,46.362,41.734,47.034,40.906,47.034z"/>
		<path id="path-7" d="M44.906,58.041h-28c-0.828,0-1.5-0.671-1.5-1.501c0-0.829,0.672-1.501,1.5-1.501h28
			c0.828,0,1.5,0.672,1.5,1.501C46.406,57.37,45.734,58.041,44.906,58.041z"/>
		<path id="path-8" d="M49.675,63.054c-0.42,0-0.838-0.175-1.134-0.518L39.77,52.419c-0.542-0.627-0.475-1.575,0.15-2.117
			c0.628-0.545,1.575-0.476,2.116,0.15l8.771,10.117c0.543,0.627,0.475,1.574-0.15,2.118C50.373,62.933,50.022,63.054,49.675,63.054
			z"/>
		<path id="path-9" d="M12.642,63.054c-0.348,0-0.699-0.121-0.983-0.367c-0.625-0.544-0.692-1.491-0.149-2.118l8.77-10.117
			c0.541-0.626,1.489-0.695,2.116-0.15c0.625,0.542,0.693,1.49,0.15,2.117l-8.771,10.117C13.479,62.879,13.061,63.054,12.642,63.054
			z"/>
	</g>
</g>
<g>
</g>
<g>
</g>
<g>
</g>
<g>
</g>
<g>
</g>
<g>
</g>
<g>
</g>
<g>
</g>
<g>
</g>
<g>
</g>
<g>
</g>
<g>
</g>
<g>
</g>
<g>
</g>
<g>
</g>
</svg>
